custom-analysis
version=1
nRows=6
nColumns=98
inDegrees=no

This file contains tibia displacement and acting force.

Units are S.I. units (seconds, meters, Newtons, ...)
Angles are in degrees.

endheader
time	APT	SIT	knee_angle	aACL_R_force	pACL_R_force	aPCL_R_force	pPCL_R_force	aMCL_R_force	mMCL_R_force	pMCL_R_force	aLCL_R_force	mLCL_R_force	pLCL_R_force	aPCL_L_force	pPCL_L_force	aMCL_L_force	aLCL_L_force	aACL_R_length	pACL_R_length	aPCL_R_length	pPCL_R_length	aMCL_R_length	mMCL_R_length	pMCL_R_length	aLCL_R_length	mLCL_R_length	pLCL_R_length	aPCL_L_length	pPCL_L_length	aMCL_L_length	aLCL_L_length	aACL_R_strain	pACL_R_strain	aPCL_R_strain	pPCL_R_strain	aMCL_R_strain	mMCL_R_strain	pMCL_R_strain	aLCL_R_strain	mLCL_R_strain	pLCL_R_strain	aPCL_L_strain	pPCL_L_strain	aMCL_L_strain	aLCL_L_strain	femur_lat_meniscii_r.femur_lat_r.force.X	femur_lat_meniscii_r.femur_lat_r.force.Y	femur_lat_meniscii_r.femur_lat_r.force.Z	femur_lat_meniscii_r.femur_lat_r.torque.X	femur_lat_meniscii_r.femur_lat_r.torque.Y	femur_lat_meniscii_r.femur_lat_r.torque.Z	femur_lat_meniscii_r.meniscus_lat_r.force.X	femur_lat_meniscii_r.meniscus_lat_r.force.Y	femur_lat_meniscii_r.meniscus_lat_r.force.Z	femur_lat_meniscii_r.meniscus_lat_r.torque.X	femur_lat_meniscii_r.meniscus_lat_r.torque.Y	femur_lat_meniscii_r.meniscus_lat_r.torque.Z	femur_med_meniscii_r.femur_med_r.force.X	femur_med_meniscii_r.femur_med_r.force.Y	femur_med_meniscii_r.femur_med_r.force.Z	femur_med_meniscii_r.femur_med_r.torque.X	femur_med_meniscii_r.femur_med_r.torque.Y	femur_med_meniscii_r.femur_med_r.torque.Z	femur_med_meniscii_r.meniscus_med_r.force.X	femur_med_meniscii_r.meniscus_med_r.force.Y	femur_med_meniscii_r.meniscus_med_r.force.Z	femur_med_meniscii_r.meniscus_med_r.torque.X	femur_med_meniscii_r.meniscus_med_r.torque.Y	femur_med_meniscii_r.meniscus_med_r.torque.Z	femur_med_tibia_r.tibia_upper_r.force.X	femur_med_tibia_r.tibia_upper_r.force.Y	femur_med_tibia_r.tibia_upper_r.force.Z	femur_med_tibia_r.tibia_upper_r.torque.X	femur_med_tibia_r.tibia_upper_r.torque.Y	femur_med_tibia_r.tibia_upper_r.torque.Z	femur_med_tibia_r.femur_med_r.force.X	femur_med_tibia_r.femur_med_r.force.Y	femur_med_tibia_r.femur_med_r.force.Z	femur_med_tibia_r.femur_med_r.torque.X	femur_med_tibia_r.femur_med_r.torque.Y	femur_med_tibia_r.femur_med_r.torque.Z	femur_lat_tibia_r.tibia_upper_r.force.X	femur_lat_tibia_r.tibia_upper_r.force.Y	femur_lat_tibia_r.tibia_upper_r.force.Z	femur_lat_tibia_r.tibia_upper_r.torque.X	femur_lat_tibia_r.tibia_upper_r.torque.Y	femur_lat_tibia_r.tibia_upper_r.torque.Z	femur_lat_tibia_r.femur_lat_r.force.X	femur_lat_tibia_r.femur_lat_r.force.Y	femur_lat_tibia_r.femur_lat_r.force.Z	femur_lat_tibia_r.femur_lat_r.torque.X	femur_lat_tibia_r.femur_lat_r.torque.Y	femur_lat_tibia_r.femur_lat_r.torque.Z	femur_lat_meniscii_force_r	femur_med_meniscii_force_r	femur_lat_tibia_force_r	femur_med_tibia_force_r
      0.16501804	      0.01293775	      0.01729304	     57.05658069	     -0.98297534	      0.00000000	    580.49928347	    375.09699475	      0.00000000	      0.00000000	      0.00000000	      0.00000000	      0.00000000	      0.00000000	      0.00000000	      0.00000000	      0.00000001	      0.00000000	      0.03134747	      0.02406563	      0.03496437	      0.03243283	      0.05952940	      0.05918744	      0.05627273	      0.05264785	      0.04791262	      0.04301746	      0.01525851	      0.01651186	      0.06550154	      0.04489616	      0.01102919	     -0.03962993	      0.12442611	      0.08515282	     -0.00828959	     -0.01013593	     -0.04180743	     -0.05947695	     -0.14925755	     -0.17815734	      0.00000079	     -0.32847694	      0.00000060	     -0.00000086	    115.66384629	    206.20463289	     26.44783349	    -15.65316609	      2.83012795	     45.23481576	   -115.66384629	   -206.20463289	    -26.44783349	      5.74237108	     -3.54860224	      3.70958638	     27.76664846	     24.31174025	     12.09015504	     -4.31649776	     -0.62563560	     11.13045386	    -27.76664846	    -24.31174025	    -12.09015504	     -0.31862165	      0.33473273	      0.09968220	   -743.80491324	   -680.55559109	    222.97201130	    -15.76987076	     16.89430746	     -1.00445104	    743.80491324	    680.55559109	   -222.97201130	    102.94053624	    -13.40689513	    302.43845990	      0.00000000	      0.00000000	      0.00000000	      0.00000000	      0.00000000	      0.00000000	      0.00000000	      0.00000000	      0.00000000	      0.00000000	      0.00000000	      0.00000000	    237.90326577	     38.83579959	      0.00000000	   1032.52998957
      0.16523367	      0.01295188	      0.01733421	     57.17247803	     -0.98427669	      0.00000000	    582.67441079	    376.18508220	      0.00000000	      0.00000000	      0.00000000	      0.00000000	      0.00000000	      0.00000000	      0.00000000	      0.00000000	      0.00000001	      0.00000000	      0.03134643	      0.02406557	      0.03497693	      0.03244012	      0.05954007	      0.05918948	      0.05626911	      0.05264080	      0.04790052	      0.04300240	      0.01525851	      0.01651186	      0.06550154	      0.04489616	      0.01099582	     -0.03963207	      0.12483015	      0.08539670	     -0.00811191	     -0.01010169	     -0.04186916	     -0.05960285	     -0.14947254	     -0.17844516	      0.00000079	     -0.32847694	      0.00000060	     -0.00000086	    117.86496632	    204.64335948	     25.97064056	    -15.41179087	      2.88758227	     46.15860076	   -117.86496632	   -204.64335948	    -25.97064056	      5.68270050	     -3.60082380	      3.61603027	     27.79215257	     24.07838028	     12.01020323	     -4.28947366	     -0.62535315	     11.14062014	    -27.79215257	    -24.07838028	    -12.01020323	     -0.31543412	      0.33551670	      0.09641633	   -746.12486043	   -679.95963388	    223.48228705	    -15.75435842	     16.94616857	     -0.99667924	    746.12486043	    679.95963388	   -223.48228705	    103.13024520	    -13.44467234	    303.36604514	      0.00000000	      0.00000000	      0.00000000	      0.00000000	      0.00000000	      0.00000000	      0.00000000	      0.00000000	      0.00000000	      0.00000000	      0.00000000	      0.00000000	    237.58267831	     38.68355107	      0.00000000	   1033.92056933
      0.16544931	      0.01296592	      0.01737541	     57.28837958	     -0.99823244	      0.00000000	    584.84339911	    377.27025227	      0.00000000	      0.00000000	      0.00000000	      0.00000000	      0.00000000	      0.00000000	      0.00000000	      0.00000000	      0.00000001	      0.00000000	      0.03134538	      0.02406552	      0.03498947	      0.03244741	      0.05955072	      0.05919155	      0.05626553	      0.05263369	      0.04788836	      0.04298731	      0.01525851	      0.01651186	      0.06550154	      0.04489616	      0.01096208	     -0.03963397	      0.12523344	      0.08564047	     -0.00793438	     -0.01006719	     -0.04193009	     -0.05972981	     -0.14968831	     -0.17873339	      0.00000079	     -0.32847694	      0.00000060	     -0.00000086	    118.03778343	    205.21635853	     26.34653164	    -15.58288037	      2.89433509	     46.21542532	   -118.03778343	   -205.21635853	    -26.34653164	      5.70904500	     -3.61693919	      3.64980323	     27.81595022	     23.83520065	     11.91325226	     -4.25588434	     -0.62511104	     11.15042800	    -27.81595022	    -23.83520065	    -11.91325226	     -0.31225365	      0.33670221	      0.09262960	   -747.96031778	   -679.51044543	    223.53716926	    -15.72668929	     16.97784446	     -0.97098069	    747.96031778	    679.51044543	   -223.53716926	    103.13208568	    -13.47096376	    304.09162208	      0.00000000	      0.00000000	      0.00000000	      0.00000000	      0.00000000	      0.00000000	      0.00000000	      0.00000000	      0.00000000	      0.00000000	      0.00000000	      0.00000000	    238.20329942	     38.51972814	      0.00000000	   1034.96277637
      0.16570149	      0.01298223	      0.01742364	     57.42393902	     -0.99430157	      0.00000000	    587.34505805	    378.46659770	      0.00000000	      0.00000000	      0.00000000	      0.00000000	      0.00000000	      0.00000000	      0.00000000	      0.00000000	      0.00000001	      0.00000000	      0.03134417	      0.02406549	      0.03500409	      0.03245590	      0.05956317	      0.05919397	      0.05626140	      0.05262530	      0.04787410	      0.04296964	      0.01525851	      0.01651186	      0.06550154	      0.04489616	      0.01092274	     -0.03963543	      0.12570354	      0.08592484	     -0.00772703	     -0.01002663	     -0.04200046	     -0.05987967	     -0.14994167	     -0.17907110	      0.00000079	     -0.32847694	      0.00000060	     -0.00000086	    118.38225332	    205.58233980	     26.54456946	    -15.67650714	      2.90189302	     46.34145542	   -118.38225332	   -205.58233980	    -26.54456946	      5.72626818	     -3.63068472	      3.67850862	     27.87129364	     23.69035482	     11.80384112	     -4.21523055	     -0.62589261	     11.17148406	    -27.87129364	    -23.69035482	    -11.80384112	     -0.31122583	      0.33903985	      0.09212387	   -750.62524919	   -677.77296515	    224.12909186	    -15.69383216	     17.03799355	     -0.99123201	    750.62524919	    677.77296515	   -224.12909186	    103.33591320	    -13.51466435	    305.16582902	      0.00000000	      0.00000000	      0.00000000	      0.00000000	      0.00000000	      0.00000000	      0.00000000	      0.00000000	      0.00000000	      0.00000000	      0.00000000	      0.00000000	    238.71127017	     38.43660476	      0.00000000	   1035.88045007
      0.16591247	      0.01299581	      0.01746403	     57.53736141	     -0.98878736	      0.00000000	    589.42366324	    379.44923343	      0.00000000	      0.00000000	      0.00000000	      0.00000000	      0.00000000	      0.00000000	      0.00000000	      0.00000000	      0.00000001	      0.00000000	      0.03134315	      0.02406547	      0.03501627	      0.03246299	      0.05957356	      0.05919601	      0.05625798	      0.05261822	      0.04786210	      0.04295481	      0.01525851	      0.01651186	      0.06550154	      0.04489616	      0.01088996	     -0.03963600	      0.12609536	      0.08616196	     -0.00755388	     -0.00999260	     -0.04205866	     -0.06000629	     -0.15015457	     -0.17935425	      0.00000079	     -0.32847694	      0.00000060	     -0.00000086	    118.75399209	    205.94677867	     26.51219394	    -15.67129456	      2.90914325	     46.48274808	   -118.75399209	   -205.94677867	    -26.51219394	      5.73376424	     -3.63913415	      3.70022341	     28.02407444	     23.64135535	     11.70526963	     -4.17660007	     -0.62836356	     11.23145080	    -28.02407444	    -23.64135535	    -11.70526963	     -0.31215174	      0.34280665	      0.09200193	   -752.26013242	   -677.43392930	    224.38712638	    -15.67503099	     17.07436760	     -0.95855591	    752.26013242	    677.43392930	   -224.38712638	    103.42518145	    -13.54129665	    305.80831732	      0.00000000	      0.00000000	      0.00000000	      0.00000000	      0.00000000	      0.00000000	      0.00000000	      0.00000000	      0.00000000	      0.00000000	      0.00000000	      0.00000000	    239.20594205	     38.48734556	      0.00000000	   1036.90000380
      0.16617222	      0.01301246	      0.01751382	     57.67702207	     -0.97718595	      0.00000000	    591.94825165	    380.59341753	      0.00000000	      0.00000000	      0.00000000	      0.00000000	      0.00000000	      0.00000000	      0.00000000	      0.00000000	      0.00000001	      0.00000000	      0.03134191	      0.02406548	      0.03503120	      0.03247167	      0.05958634	      0.05919852	      0.05625382	      0.05260940	      0.04784727	      0.04293652	      0.01525851	      0.01651186	      0.06550154	      0.04489616	      0.01085002	     -0.03963578	      0.12657548	      0.08645245	     -0.00734111	     -0.00995062	     -0.04212954	     -0.06016381	     -0.15041794	     -0.17970374	      0.00000079	     -0.32847694	      0.00000060	     -0.00000086	    120.53098201	    205.48972177	     25.77504028	    -15.34158325	      2.95242217	     47.21202096	   -120.53098201	   -205.48972177	    -25.77504028	      5.68788063	     -3.67134563	      3.66284185	     27.66865736	     23.12873026	     11.57909169	     -4.13912739	     -0.61622042	     11.08565281	    -27.66865736	    -23.12873026	    -11.57909169	     -0.30201615	      0.33318914	      0.09196253	   -754.18412526	   -677.15809464	    225.18277790	    -15.66756845	     17.13336707	     -0.91087856	    754.18412526	    677.15809464	   -225.18277790	    103.73579768	    -13.57819739	    306.56068442	      0.00000000	      0.00000000	      0.00000000	      0.00000000	      0.00000000	      0.00000000	      0.00000000	      0.00000000	      0.00000000	      0.00000000	      0.00000000	      0.00000000	    239.62073383	     37.87569310	      0.00000000	   1038.28900765
